<svg xmlns="http://www.w3.org/2000/svg" width="1096" height="1101" fill="none" viewBox="0 0 1096 1101">
  <path fill="#5479DA" d="M176.43 381.123C347.373 521.917-38.555 582.618 3.18 728.618c87.044 304.502 259.768 256.804 295.544 251.5 269.824-40 680.776-175.499 680.776-453.495 0-265.004-109.1-205.504-170.247-275.004-97.126-110.395-282.441-367.501-593.999-192.001-122.295 68.888-196.06 192.001-38.824 321.505Z"/>
  <g clip-path="url(#a)">
    <path fill="#2F2E41" d="M683.761 765.358H579.543a4.947 4.947 0 0 0-1.653.265 5.54 5.54 0 0 0-2.823 2.067 5.82 5.82 0 0 0-1.078 3.391v169.632h115.343V771.081a5.892 5.892 0 0 0-.426-2.193 5.747 5.747 0 0 0-1.208-1.858 5.574 5.574 0 0 0-1.807-1.24 5.44 5.44 0 0 0-2.13-.432Zm-39.443 83.692a12.705 12.705 0 0 1-2.504 7.608 12.316 12.316 0 0 1-6.172 4.465c-2.46.786-5.098.757-7.541-.084a12.331 12.331 0 0 1-6.077-4.6 12.942 12.942 0 0 1-2.332-7.389v-19.683c.031-3.344 1.341-6.541 3.647-8.894 2.306-2.354 5.42-3.675 8.666-3.675 3.246 0 6.361 1.321 8.667 3.675 2.306 2.353 3.616 5.55 3.646 8.894v19.683Z"/>
    <path fill="#3F3D56" d="M573.635 935.288v16.358c0 .848.326 1.662.907 2.263.58.601 1.369.941 2.192.946h109.853a3.08 3.08 0 0 0 2.189-.949c.58-.601.906-1.413.909-2.26v-16.358h-116.05Z"/>
    <path fill="#262534" d="M856.335 500.639h-445.48c-3.828.005-7.497 1.572-10.206 4.359-2.708 2.787-4.233 6.566-4.242 10.51v309.724c.003 3.947 1.526 7.732 4.235 10.523 2.709 2.791 6.382 4.36 10.213 4.363h445.48c3.831-.003 7.504-1.572 10.212-4.363 2.709-2.791 4.233-6.576 4.236-10.523V515.508c-.01-3.944-1.535-7.723-4.243-10.51s-6.378-4.354-10.205-4.359Z"/>
    <path fill="#333" d="M852.61 511.39H414.563a7.623 7.623 0 0 0-5.461 2.341 8.101 8.101 0 0 0-2.261 5.631v302.05a8.097 8.097 0 0 0 2.266 5.621 7.619 7.619 0 0 0 5.456 2.334H852.61a7.619 7.619 0 0 0 5.456-2.334 8.093 8.093 0 0 0 2.266-5.621v-302.05a8.093 8.093 0 0 0-2.261-5.631 7.621 7.621 0 0 0-5.461-2.341Z"/>
    <path fill="#2F2E41" d="m771.99 954.59-4.045-19.798a5.018 5.018 0 0 0-1.05-2.186 4.817 4.817 0 0 0-1.936-1.404 4.52 4.52 0 0 0-1.702-.33H510.722a4.518 4.518 0 0 0-1.701.33 4.817 4.817 0 0 0-1.936 1.404 5.018 5.018 0 0 0-1.05 2.186l-4.046 19.798a5.081 5.081 0 0 0 .033 2.175c.168.714.488 1.38.937 1.951a4.818 4.818 0 0 0 1.658 1.346 4.688 4.688 0 0 0 2.06.482h260.61a4.611 4.611 0 0 0 2.066-.478 4.742 4.742 0 0 0 1.658-1.358c.45-.568.771-1.233.941-1.945a5.088 5.088 0 0 0 .038-2.173Z"/>
    <path fill="#3F3D56" d="M519.816 934.438h-6.459a.796.796 0 0 0-.784.807v3.347c0 .446.351.807.784.807h6.459a.796.796 0 0 0 .784-.807v-3.347a.796.796 0 0 0-.784-.807Zm16.054 0h-6.46a.795.795 0 0 0-.783.807v3.347c0 .446.351.807.783.807h6.46a.795.795 0 0 0 .783-.807v-3.347a.795.795 0 0 0-.783-.807Zm16.053 0h-6.459a.796.796 0 0 0-.784.807v3.347c0 .446.351.807.784.807h6.459a.796.796 0 0 0 .784-.807v-3.347a.796.796 0 0 0-.784-.807Zm16.053 0h-6.459a.796.796 0 0 0-.784.807v3.347c0 .446.351.807.784.807h6.459a.796.796 0 0 0 .784-.807v-3.347a.796.796 0 0 0-.784-.807Zm16.054 0h-6.46a.795.795 0 0 0-.783.807v3.347c0 .446.351.807.783.807h6.46a.795.795 0 0 0 .783-.807v-3.347a.795.795 0 0 0-.783-.807Zm16.053 0h-6.459a.796.796 0 0 0-.784.807v3.347c0 .446.351.807.784.807h6.459a.796.796 0 0 0 .784-.807v-3.347a.796.796 0 0 0-.784-.807Zm16.053 0h-6.459a.796.796 0 0 0-.784.807v3.347c0 .446.351.807.784.807h6.459a.796.796 0 0 0 .784-.807v-3.347a.796.796 0 0 0-.784-.807Zm16.054 0h-6.46a.795.795 0 0 0-.783.807v3.347c0 .446.351.807.783.807h6.46a.795.795 0 0 0 .783-.807v-3.347a.795.795 0 0 0-.783-.807Zm16.053 0h-6.459a.796.796 0 0 0-.784.807v3.347c0 .446.351.807.784.807h6.459a.796.796 0 0 0 .784-.807v-3.347a.796.796 0 0 0-.784-.807Zm16.053 0h-6.459a.796.796 0 0 0-.784.807v3.347c0 .446.351.807.784.807h6.459a.796.796 0 0 0 .784-.807v-3.347a.796.796 0 0 0-.784-.807Zm16.054 0h-6.46a.795.795 0 0 0-.783.807v3.347c0 .446.351.807.783.807h6.46a.795.795 0 0 0 .783-.807v-3.347a.795.795 0 0 0-.783-.807Zm16.053 0h-6.459a.796.796 0 0 0-.784.807v3.347c0 .446.351.807.784.807h6.459a.796.796 0 0 0 .784-.807v-3.347a.796.796 0 0 0-.784-.807Zm16.053 0h-6.459a.796.796 0 0 0-.784.807v3.347c0 .446.351.807.784.807h6.459a.796.796 0 0 0 .784-.807v-3.347a.796.796 0 0 0-.784-.807Zm16.054 0h-6.46a.795.795 0 0 0-.783.807v3.347c0 .446.351.807.783.807h6.46a.795.795 0 0 0 .783-.807v-3.347a.795.795 0 0 0-.783-.807Zm16.053 0h-6.459a.796.796 0 0 0-.784.807v3.347c0 .446.351.807.784.807h6.459a.796.796 0 0 0 .784-.807v-3.347a.796.796 0 0 0-.784-.807Zm16.053 0h-6.459a.796.796 0 0 0-.784.807v3.347c0 .446.351.807.784.807h6.459a.796.796 0 0 0 .784-.807v-3.347a.796.796 0 0 0-.784-.807Zm-240.989 8.269h-6.46a.796.796 0 0 0-.783.807v3.348c0 .445.351.807.783.807h6.46a.795.795 0 0 0 .783-.807v-3.348a.795.795 0 0 0-.783-.807Zm16.053 0h-6.459a.796.796 0 0 0-.784.807v3.348c0 .445.351.807.784.807h6.459a.796.796 0 0 0 .784-.807v-3.348a.796.796 0 0 0-.784-.807Zm16.053 0h-6.459a.796.796 0 0 0-.784.807v3.348c0 .445.351.807.784.807h6.459a.796.796 0 0 0 .784-.807v-3.348a.796.796 0 0 0-.784-.807Zm16.054 0h-6.46a.796.796 0 0 0-.783.807v3.348c0 .445.351.807.783.807h6.46a.795.795 0 0 0 .783-.807v-3.348a.795.795 0 0 0-.783-.807Zm16.053 0h-6.459a.796.796 0 0 0-.784.807v3.348c0 .445.351.807.784.807h6.459a.796.796 0 0 0 .784-.807v-3.348a.796.796 0 0 0-.784-.807Zm16.053 0h-6.459a.796.796 0 0 0-.784.807v3.348c0 .445.351.807.784.807h6.459a.796.796 0 0 0 .784-.807v-3.348a.796.796 0 0 0-.784-.807Zm16.054 0h-6.46a.796.796 0 0 0-.783.807v3.348c0 .445.351.807.783.807h6.46a.795.795 0 0 0 .783-.807v-3.348a.795.795 0 0 0-.783-.807Zm16.053 0h-6.459a.796.796 0 0 0-.784.807v3.348c0 .445.351.807.784.807H632a.796.796 0 0 0 .784-.807v-3.348a.796.796 0 0 0-.784-.807Zm16.053 0h-6.459a.796.796 0 0 0-.784.807v3.348c0 .445.351.807.784.807h6.459a.796.796 0 0 0 .784-.807v-3.348a.796.796 0 0 0-.784-.807Zm16.054 0h-6.46a.796.796 0 0 0-.783.807v3.348c0 .445.351.807.783.807h6.46a.796.796 0 0 0 .783-.807v-3.348a.796.796 0 0 0-.783-.807Zm16.053 0h-6.459a.796.796 0 0 0-.784.807v3.348c0 .445.351.807.784.807h6.459a.796.796 0 0 0 .784-.807v-3.348a.796.796 0 0 0-.784-.807Zm16.053 0h-6.459a.796.796 0 0 0-.784.807v3.348c0 .445.351.807.784.807h6.459a.796.796 0 0 0 .784-.807v-3.348a.796.796 0 0 0-.784-.807Zm16.054 0h-6.46a.796.796 0 0 0-.783.807v3.348c0 .445.351.807.783.807h6.46a.796.796 0 0 0 .783-.807v-3.348a.796.796 0 0 0-.783-.807Zm16.053 0h-6.459a.796.796 0 0 0-.784.807v3.348c0 .445.351.807.784.807h6.459a.796.796 0 0 0 .784-.807v-3.348a.796.796 0 0 0-.784-.807Zm16.053 0h-6.459a.796.796 0 0 0-.784.807v3.348c0 .445.351.807.784.807h6.459a.796.796 0 0 0 .784-.807v-3.348a.796.796 0 0 0-.784-.807Zm16.054 0h-6.46a.796.796 0 0 0-.783.807v3.348c0 .445.351.807.783.807h6.46a.796.796 0 0 0 .783-.807v-3.348a.796.796 0 0 0-.783-.807Zm-107.558 9.924h-62.646a.795.795 0 0 0-.783.807v3.347c0 .446.351.808.783.808h62.646a.796.796 0 0 0 .784-.808v-3.347a.796.796 0 0 0-.784-.807Z"/>
    <path fill="#B2B2B2" d="M830.598 552.998H420.719a1.607 1.607 0 0 1-1.13-.504 1.707 1.707 0 0 1-.464-1.175c0-.439.166-.861.464-1.175a1.607 1.607 0 0 1 1.13-.504h409.879c.426.009.832.19 1.13.504.298.314.465.736.465 1.175 0 .439-.167.861-.465 1.175a1.605 1.605 0 0 1-1.13.504Z"/>
    <path fill="#6D9541" d="M448.62 541.065c5.276 0 9.553-4.505 9.553-10.061 0-5.557-4.277-10.062-9.553-10.062-5.276 0-9.552 4.505-9.552 10.062 0 5.556 4.276 10.061 9.552 10.061Z"/>
    <path fill="#B2B2B2" d="M481.619 541.065c5.276 0 9.553-4.505 9.553-10.061 0-5.557-4.277-10.062-9.553-10.062-5.275 0-9.552 4.505-9.552 10.062 0 5.556 4.277 10.061 9.552 10.061Zm33 0c5.275 0 9.552-4.505 9.552-10.061 0-5.557-4.277-10.062-9.552-10.062-5.276 0-9.553 4.505-9.553 10.062 0 5.556 4.277 10.061 9.553 10.061Zm296.108-17.634h-23.438a1.749 1.749 0 0 0-1.228.55c-.324.341-.505.8-.505 1.277 0 .478.181.936.505 1.278.324.341.765.539 1.228.55h23.438a1.749 1.749 0 0 0 1.238-.544c.328-.342.511-.803.511-1.284 0-.48-.183-.941-.511-1.283a1.745 1.745 0 0 0-1.238-.544Zm0 6.863h-23.438a1.751 1.751 0 0 0-1.229.55c-.324.341-.506.8-.506 1.278s.182.937.506 1.278c.324.342.766.539 1.229.55h23.438a1.75 1.75 0 0 0 1.241-.543c.328-.342.512-.804.512-1.285a1.86 1.86 0 0 0-.512-1.285 1.75 1.75 0 0 0-1.241-.543Zm0 6.865h-23.438a1.749 1.749 0 0 0-1.228.55c-.324.341-.505.8-.505 1.277 0 .478.181.936.505 1.278.324.341.765.539 1.228.55h23.438a1.749 1.749 0 0 0 1.238-.544c.328-.342.511-.803.511-1.284 0-.48-.183-.941-.511-1.283a1.745 1.745 0 0 0-1.238-.544Z"/>
    <path fill="#6D9541" d="M456.061 592.026h-8.422c-2.553 0-4.623 2.133-4.623 4.764 0 2.63 2.07 4.763 4.623 4.763h8.422c2.554 0 4.624-2.133 4.624-4.763 0-2.631-2.07-4.764-4.624-4.764Z"/>
    <path fill="#5479DA" d="M552.381 592.026h-8.422c-2.553 0-4.623 2.133-4.623 4.764 0 2.63 2.07 4.763 4.623 4.763h8.422c2.554 0 4.624-2.133 4.624-4.763 0-2.631-2.07-4.764-4.624-4.764Z"/>
    <path fill="#E6E6E6" d="M579.672 592.026h-8.422c-2.553 0-4.623 2.133-4.623 4.764 0 2.63 2.07 4.763 4.623 4.763h8.422c2.553 0 4.623-2.133 4.623-4.763 0-2.631-2.07-4.764-4.623-4.764Z"/>
    <path fill="#5479DA" d="M526.182 591.232h-52.343c-2.554 0-4.624 2.133-4.624 4.764 0 2.631 2.07 4.763 4.624 4.763h52.343c2.553 0 4.623-2.132 4.623-4.763s-2.07-4.764-4.623-4.764Z"/>
    <path fill="#E6E6E6" d="M654.608 591.232h-52.343c-2.553 0-4.623 2.133-4.623 4.764 0 2.631 2.07 4.763 4.623 4.763h52.343c2.554 0 4.624-2.132 4.624-4.763s-2.07-4.764-4.624-4.764Z"/>
    <path fill="#5479DA" d="M481.747 613.528h-8.422c-2.554 0-4.624 2.133-4.624 4.764 0 2.63 2.07 4.763 4.624 4.763h8.422c2.553 0 4.623-2.133 4.623-4.763 0-2.631-2.07-4.764-4.623-4.764Z"/>
    <path fill="#E6E6E6" d="M578.067 613.528h-8.422c-2.554 0-4.624 2.133-4.624 4.764 0 2.63 2.07 4.763 4.624 4.763h8.422c2.553 0 4.623-2.133 4.623-4.763 0-2.631-2.07-4.764-4.623-4.764Zm27.29 0h-8.422c-2.553 0-4.623 2.133-4.623 4.764 0 2.63 2.07 4.763 4.623 4.763h8.422c2.554 0 4.624-2.133 4.624-4.763 0-2.631-2.07-4.764-4.624-4.764Z"/>
    <path fill="#6D9541" d="M551.867 612.734h-52.343c-2.553 0-4.623 2.133-4.623 4.763 0 2.631 2.07 4.764 4.623 4.764h52.343c2.554 0 4.624-2.133 4.624-4.764 0-2.63-2.07-4.763-4.624-4.763Z"/>
    <path fill="#E6E6E6" d="M680.294 612.734h-52.343c-2.554 0-4.624 2.133-4.624 4.763 0 2.631 2.07 4.764 4.624 4.764h52.343c2.553 0 4.623-2.133 4.623-4.764 0-2.63-2.07-4.763-4.623-4.763Z"/>
    <path fill="#6D9541" d="M507.432 635.03h-8.422c-2.553 0-4.623 2.132-4.623 4.763s2.07 4.764 4.623 4.764h8.422c2.553 0 4.623-2.133 4.623-4.764 0-2.631-2.07-4.763-4.623-4.763Z"/>
    <path fill="#E6E6E6" d="M603.752 635.03h-8.422c-2.553 0-4.623 2.132-4.623 4.763s2.07 4.764 4.623 4.764h8.422c2.553 0 4.623-2.133 4.623-4.764 0-2.631-2.07-4.763-4.623-4.763Zm27.291 0h-8.422c-2.554 0-4.624 2.132-4.624 4.763s2.07 4.764 4.624 4.764h8.422c2.553 0 4.623-2.133 4.623-4.764 0-2.631-2.07-4.763-4.623-4.763Z"/>
    <path fill="#5479DA" d="M577.553 634.236h-52.344c-2.553 0-4.623 2.132-4.623 4.763s2.07 4.764 4.623 4.764h52.344c2.553 0 4.623-2.133 4.623-4.764 0-2.631-2.07-4.763-4.623-4.763Z"/>
    <path fill="#E6E6E6" d="M705.979 634.236h-52.343c-2.553 0-4.623 2.132-4.623 4.763s2.07 4.764 4.623 4.764h52.343c2.554 0 4.623-2.133 4.623-4.764 0-2.631-2.069-4.763-4.623-4.763Z"/>
    <path fill="#5479DA" d="M533.117 656.532h-8.422c-2.553 0-4.623 2.132-4.623 4.763s2.07 4.764 4.623 4.764h8.422c2.554 0 4.624-2.133 4.624-4.764 0-2.631-2.07-4.763-4.624-4.763Z"/>
    <path fill="#E6E6E6" d="M629.437 656.532h-8.422c-2.553 0-4.623 2.132-4.623 4.763s2.07 4.764 4.623 4.764h8.422c2.554 0 4.623-2.133 4.623-4.764 0-2.631-2.069-4.763-4.623-4.763Zm27.291 0h-8.422c-2.553 0-4.623 2.132-4.623 4.763s2.07 4.764 4.623 4.764h8.422c2.553 0 4.623-2.133 4.623-4.764 0-2.631-2.07-4.763-4.623-4.763Z"/>
    <path fill="#5479DA" d="M603.238 655.737h-52.343c-2.554 0-4.624 2.133-4.624 4.764 0 2.63 2.07 4.763 4.624 4.763h52.343c2.553 0 4.623-2.133 4.623-4.763 0-2.631-2.07-4.764-4.623-4.764Z"/>
    <path fill="#6D9541" d="M552.381 742.032h-8.422c-2.553 0-4.623 2.132-4.623 4.763s2.07 4.764 4.623 4.764h8.422c2.554 0 4.624-2.133 4.624-4.764 0-2.631-2.07-4.763-4.624-4.763Z"/>
    <path fill="#E6E6E6" d="M579.672 742.032h-8.422c-2.553 0-4.623 2.132-4.623 4.763s2.07 4.764 4.623 4.764h8.422c2.553 0 4.623-2.133 4.623-4.764 0-2.631-2.07-4.763-4.623-4.763Zm74.936.794h-52.343c-2.553 0-4.623 2.132-4.623 4.763s2.07 4.763 4.623 4.763h52.343c2.554 0 4.624-2.132 4.624-4.763s-2.07-4.763-4.624-4.763Z"/>
    <path fill="#5479DA" d="M456.061 742.032h-8.422c-2.553 0-4.623 2.132-4.623 4.763s2.07 4.764 4.623 4.764h8.422c2.554 0 4.624-2.133 4.624-4.764 0-2.631-2.07-4.763-4.624-4.763Zm70.121.794h-52.343c-2.554 0-4.624 2.132-4.624 4.763s2.07 4.763 4.624 4.763h52.343c2.553 0 4.623-2.132 4.623-4.763s-2.07-4.763-4.623-4.763Z"/>
    <path fill="#6D9541" d="M481.747 720.53h-8.422c-2.554 0-4.624 2.132-4.624 4.763s2.07 4.764 4.624 4.764h8.422c2.553 0 4.623-2.133 4.623-4.764 0-2.631-2.07-4.763-4.623-4.763Z"/>
    <path fill="#E6E6E6" d="M578.067 720.53h-8.422c-2.554 0-4.624 2.132-4.624 4.763s2.07 4.764 4.624 4.764h8.422c2.553 0 4.623-2.133 4.623-4.764 0-2.631-2.07-4.763-4.623-4.763Zm27.29 0h-8.422c-2.553 0-4.623 2.132-4.623 4.763s2.07 4.764 4.623 4.764h8.422c2.554 0 4.624-2.133 4.624-4.764 0-2.631-2.07-4.763-4.624-4.763Z"/>
    <path fill="#5479DA" d="M551.867 721.324h-52.343c-2.553 0-4.623 2.133-4.623 4.764 0 2.63 2.07 4.763 4.623 4.763h52.343c2.554 0 4.624-2.133 4.624-4.763 0-2.631-2.07-4.764-4.624-4.764Zm-44.435-22.296h-8.422c-2.553 0-4.623 2.133-4.623 4.764 0 2.63 2.07 4.763 4.623 4.763h8.422c2.553 0 4.623-2.133 4.623-4.763 0-2.631-2.07-4.764-4.623-4.764Z"/>
    <path fill="#E6E6E6" d="M603.752 699.028h-8.422c-2.553 0-4.623 2.133-4.623 4.764 0 2.63 2.07 4.763 4.623 4.763h8.422c2.553 0 4.623-2.133 4.623-4.763 0-2.631-2.07-4.764-4.623-4.764Zm27.291 0h-8.422c-2.554 0-4.624 2.133-4.624 4.764 0 2.63 2.07 4.763 4.624 4.763h8.422c2.553 0 4.623-2.133 4.623-4.763 0-2.631-2.07-4.764-4.623-4.764Z"/>
    <path fill="#5479DA" d="M577.553 699.822h-52.344c-2.553 0-4.623 2.133-4.623 4.764 0 2.63 2.07 4.763 4.623 4.763h52.344c2.553 0 4.623-2.133 4.623-4.763 0-2.631-2.07-4.764-4.623-4.764Zm-44.436-22.296h-8.422c-2.553 0-4.623 2.133-4.623 4.764 0 2.631 2.07 4.763 4.623 4.763h8.422c2.554 0 4.624-2.132 4.624-4.763s-2.07-4.764-4.624-4.764Z"/>
    <path fill="#E6E6E6" d="M629.437 677.526h-8.422c-2.553 0-4.623 2.133-4.623 4.764 0 2.631 2.07 4.763 4.623 4.763h8.422c2.554 0 4.623-2.132 4.623-4.763s-2.069-4.764-4.623-4.764Zm27.291 0h-8.422c-2.553 0-4.623 2.133-4.623 4.764 0 2.631 2.07 4.763 4.623 4.763h8.422c2.553 0 4.623-2.132 4.623-4.763s-2.07-4.764-4.623-4.764Z"/>
    <path fill="#6D9541" d="M603.238 678.32h-52.343c-2.554 0-4.624 2.133-4.624 4.764 0 2.63 2.07 4.763 4.624 4.763h52.343c2.553 0 4.623-2.133 4.623-4.763 0-2.631-2.07-4.764-4.623-4.764Z"/>
    <path fill="#B2B2B2" d="M835.513 1052.65c-.979.52-1.974 1.03-2.953 1.53-25.365 13.06-45.656 20.49-73.412 28.63-2.344-26.96-4.608-74.35-6.807-103.725-.578-7.624-1.156-14.025-1.718-18.541a25.753 25.753 0 0 0-1.412-7.029l.096 7.029.241 18.541 1.396 106.035a450.852 450.852 0 0 1-105.695 15.7c-1.862.05-3.692.08-5.458.11-.626.02-1.236.04-1.846.04-2.007.01-3.997.03-6.004.03a451.345 451.345 0 0 1-111.635-13.94c.787-26.68 1.574-73.54 2.328-107.975.161-6.731.305-13 .466-18.541.305-11.842.626-20.377.931-23.238a7.296 7.296 0 0 0-.626 1.604 165.118 165.118 0 0 0-3.034 21.634c-.562 5.541-1.124 11.81-1.686 18.541-2.986 35.775-6.1 84.415-9.311 105.045a449.148 449.148 0 0 1-56.138-19.9 441.976 441.976 0 0 1-28.383-13.38c1.766-11.91 3.612-25.25 5.507-39.1a6282.536 6282.536 0 0 1 4.559-32.665c2.408-16.837 4.88-33.344 7.384-47.882 3.66-21.237 7.417-38.306 11.141-46.146a2520.701 2520.701 0 0 1 10.483-21.816 1451.92 1451.92 0 0 1 3.532-7.261c.273-.563.546-1.108.818-1.654 2.457-4.979 4.833-9.742 7.096-14.208a890.782 890.782 0 0 1 5.538-10.751c4.239-8.071 7.835-14.505 10.499-18.574 11.142-17.412 27.727-30.374 47.004-36.735l.482-.132.337.149 32.829-10.387 4.8-1.522 3.227-1.025 11.366-8.915 6.18-4.846 5.795-4.549 11.334-8.882 70.169 4.449 13.662 33.89 30.597 11.529.53-.248.466-.199.481.132c19.274 6.367 35.858 19.328 47.004 36.735 1.509 2.332 3.339 5.409 5.41 9.13 1.766 3.159 3.693 6.765 5.779 10.751 2.97 5.673 6.213 12.074 9.649 19.004.754 1.522 1.525 3.077 2.295 4.648 1.429 2.911 2.879 5.883 4.351 8.915a2295.67 2295.67 0 0 1 10.482 21.832c3.067 6.468 6.165 19.765 9.215 36.686 2.52 14.059 5.025 30.631 7.449 47.882 3.178 22.365-.209 49.145 2.665 69.715.176 1.31.369 2.58.545 3.85Z"/>
    <path fill="#D5B291" d="M632.929 706.898c45.071 0 81.609-37.645 81.609-84.083 0-46.437-36.538-84.082-81.609-84.082-45.072 0-81.61 37.645-81.61 84.082 0 46.438 36.538 84.083 81.61 84.083Z"/>
    <path fill="#4E433B" d="M767.512 511.389a44.256 44.256 0 0 0-6.374-10.75c-12.393-15.598-34.932-22.462-58.065-4.003a23.84 23.84 0 0 0-13.404.794 20.555 20.555 0 0 0-5.651 3.209 26.342 26.342 0 0 0-7.93 10.75 26.283 26.283 0 0 0-1.766 6.997 79.717 79.717 0 0 0-18.028-6.997 94.12 94.12 0 0 0-46.763 0 57.723 57.723 0 0 0-14.095 5.756c-7.513 4.466-11.831 10.106-12.602 16.375-10.836.628-22.105 6.5-30.501 16.126a48.927 48.927 0 0 0-2.713 3.357c-7.061 9.519-10.855 21.183-10.788 33.163v2.1h2.039a42.05 42.05 0 0 1 16.294 3.275 43.903 43.903 0 0 1 9.455 5.376 46.425 46.425 0 0 1 5.41 4.631 55.254 55.254 0 0 1 9.825 13.314c6.669 12.446 8.982 26.876 6.55 40.87a61.351 61.351 0 0 1-2.441 9.527 62.96 62.96 0 0 1-5.955 12.62c-.097.149-.177.298-.273.447a104.307 104.307 0 0 0-3.066 5.391 69.821 69.821 0 0 0-2.023 4.135 87.62 87.62 0 0 0-4.624 11.975 91.099 91.099 0 0 0-3.917 22.395 69.466 69.466 0 0 0-.08 6.054 88.496 88.496 0 0 0 1.654 15.481c.144.695.289 1.373.433 2.068l1.172 5.276 2.777 12.586 1.927 8.667 1.782 8.039 2.632-3.887c.899-1.323 3.163-5.392 6.197-11.148 2.007-3.755 4.334-8.237 6.855-13.133a1730.412 1730.412 0 0 0 11.141-22.163c1.525-3.093 3.034-6.169 4.495-9.18a792.678 792.678 0 0 0 7.593-16.109c2.055-4.516 3.804-8.518 5.105-11.727.401 2.101.738 4.234.995 6.384.289 2.184.498 4.4.61 6.616.032.331.048.678.064 1.009l.065 1.357.016.396 1.701.232a145.003 145.003 0 0 0 29.538.232h.016a117.258 117.258 0 0 0 37.822-9.445 78.725 78.725 0 0 0 18.943-11.974 67.275 67.275 0 0 0 9.166-9.527 68.313 68.313 0 0 0 8.107-13.067 70.321 70.321 0 0 0 3.757-9.527c6.164-19.235 5.811-43.235-1.06-71.749a15.67 15.67 0 0 0 5.25-2.084c5.041-3.126 8.54-9.329 9.632-16.904l1.734.48a48.501 48.501 0 0 0 16.069-12.471 39.894 39.894 0 0 0 2.472-3.358c7.85-11.909 7.914-26.199 2.826-38.257Z"/>
    <path fill="#000" d="m499.212 931.13 13.641-54.237 12.045 46.801-25.686 7.436Z" opacity=".2"/>
    <path fill="#333" d="M862.194 895.791c-4.88 69.269.177 99.768-26.761 156.879a451.115 451.115 0 0 1-76.285 30.14c-2.729.79-5.464 1.56-8.204 2.31a450.852 450.852 0 0 1-105.695 15.7c-1.862.05-3.692.08-5.458.11-.626.02-1.236.04-1.846.04-2.007.01-3.997.03-6.004.03a451.345 451.345 0 0 1-122.567-16.87 449.148 449.148 0 0 1-56.138-19.9 441.976 441.976 0 0 1-28.383-13.38c-2.103-1.09-4.206-2.18-6.277-3.31-10.643-19.28-16.695-42.74-16.824-70.919 7.369-48.561 444.164-122.709 460.442-80.83Z"/>
    <path fill="#000" d="M862.181 907.653c.25-4.288.528-8.718.853-13.33-16.278-41.879-453.073 32.269-460.441 80.83.02 4.452.205 8.772.516 12.991 17.844-47.93 432.805-118.402 459.072-80.491Z" opacity=".2"/>
    <path fill="#44434D" d="M429.823 710.911a10.837 10.837 0 0 0-.606-4.415 10.571 10.571 0 0 0-2.326-3.761 10.194 10.194 0 0 0-3.629-2.431 9.94 9.94 0 0 0-4.28-.665 9.05 9.05 0 0 0-1.613.208l-63.832 14.856a10.39 10.39 0 0 0-3.928 1.939 10.753 10.753 0 0 0-2.828 3.412c-.936.036-1.866.176-2.773.416a15.294 15.294 0 0 0-5.528 2.538 15.805 15.805 0 0 0-4.164 4.524 16.269 16.269 0 0 0-2.166 5.822 16.458 16.458 0 0 0 .16 6.232 16.233 16.233 0 0 0 2.464 5.695 15.718 15.718 0 0 0 4.391 4.291 15.126 15.126 0 0 0 11.7 2.066 15.545 15.545 0 0 0 6.252-3.116l21.63 62.752a10.276 10.276 0 0 0 4.758 4.429 9.886 9.886 0 0 0 6.385.61l41.496-9.662a10.255 10.255 0 0 0 5.45-3.401 10.779 10.779 0 0 0 2.465-6.053l-9.478-86.286Zm-79.916 36.26a10.82 10.82 0 0 1-8.355-1.479c-2.485-1.613-4.247-4.175-4.902-7.125a11.724 11.724 0 0 1 1.413-8.612c1.559-2.565 4.041-4.388 6.903-5.07.201-.052.403 0 .605-.052a11.022 11.022 0 0 0 1.361 5.403l7.916 14.234a10.354 10.354 0 0 1-4.941 2.701Z"/>
    <path fill="#262534" d="M418.982 699.639c.605 8.311-13.21 17.87-31.714 21.662-16.992 3.585-32.218 1.091-36.504-5.454a9.477 9.477 0 0 1 2.773-1.143l63.832-14.857a9.05 9.05 0 0 1 1.613-.208Z"/>
    <path fill="#D5B291" d="m374.836 910.635 35.853-18.469-29.877-83.114-7.874-41.915A32.087 32.087 0 0 0 366 752.423c-3.522-4.194-8.051-7.363-13.135-9.189a29.9 29.9 0 0 0-15.833-1.217c-5.29 1.029-10.225 3.47-14.312 7.079-6.058 5.35-9.861 12.914-10.607 21.097-.747 8.184 1.622 16.346 6.605 22.764l29.229 37.643 26.889 80.035Z"/>
    <path fill="#B2B2B2" d="m410.689 876.775-47.804 24.626 36.279 117.119c2.605 8.41 7.275 15.98 13.557 21.98 6.282 6.01 13.963 10.24 22.299 12.28a48.324 48.324 0 0 0 30.806-2.62c9.738-4.22 17.918-11.53 23.354-20.86l96.199-169.886c6.817-11.707 8.922-25.696 5.863-38.979-3.058-13.283-11.036-24.808-22.23-32.113a49.847 49.847 0 0 0-19.829-7.567 49.32 49.32 0 0 0-21.1 1.412 50.28 50.28 0 0 0-18.711 10.147c-5.477 4.699-9.932 10.532-13.076 17.122L437.58 938.341l-26.891-61.566Z"/>
    <path fill="#6C63FF" d="M395.904 770.934a.775.775 0 0 1-.261-.045l-10.437-3.702a.826.826 0 0 1-.517-.578.843.843 0 0 1 .187-.763l7.762-8.707a.801.801 0 0 1 .558-.27.782.782 0 0 1 .578.217.824.824 0 0 1 .259.575.837.837 0 0 1-.213.595l-6.933 7.778 9.278 3.291c.18.064.331.191.429.359a.853.853 0 0 1 .102.56.833.833 0 0 1-.273.494.787.787 0 0 1-.519.196Z"/>
    <path fill="#5479DA" d="M410.21 767.917a.788.788 0 0 1-.449-.141.825.825 0 0 1-.295-.376.849.849 0 0 1 .186-.904l7.055-7.028-9.477-4.023a.813.813 0 0 1-.436-.447.835.835 0 0 1-.002-.633.847.847 0 0 1 .174-.269.79.79 0 0 1 .875-.179l10.61 4.504a.818.818 0 0 1 .483.609.854.854 0 0 1-.23.75l-7.936 7.905a.791.791 0 0 1-.558.232Zm-12.115 8.076a.797.797 0 0 1-.71-.44.853.853 0 0 1-.058-.631l7.409-24.809a.82.82 0 0 1 .392-.486.78.78 0 0 1 .611-.058.81.81 0 0 1 .473.402c.099.194.12.42.058.629l-7.408 24.81a.83.83 0 0 1-.29.422.79.79 0 0 1-.477.161Z"/>
  </g>
  <defs>
    <clipPath id="a">
      <path fill="#fff" d="M0 0h927.882v956H0z" transform="translate(168 145)"/>
    </clipPath>
  </defs>
</svg>